<?xml version="1.0" encoding="UTF-8"?>
<svg id="Layer_1" data-name="Layer 1" xmlns="http://www.w3.org/2000/svg" viewBox="0 0 720 720">
  <defs>
    <style>
      .cls-1 {
        fill: #6b5ca8;
        stroke-width: 0px;
      }
    </style>
  </defs>
  <g id="g74">
    <g id="g2162">
      <path id="path78" class="cls-1" d="m310.99,334.68c0-3.07-1.87-4.4-5.73-4.4-3.2,0-6.67.13-10.53.27-6,.27-7.07,1.33-7.07,7.33q0,10.27.8,11.73c.67,1.33,2.53,1.87,5.2,1.87q6.27-.13,8-.13,1.07,0,3.47.13c2.27.13,3.73-.27,4.4-1.6q1.07-1.47,1.07-9.47l.4-5.73"/>
      <path id="path80" class="cls-1" d="m268.86,358.81c-3.47,0-4.13,2.67-3.73,13.6q.27,6.4.27,7.2v2q-.53,5.47-.53,8.93c0,3.47,0,11.47.13,12.8q.27,10.4.27,12v3.2q-.53,8.4-.53,10.67c0,4,1.07,5.47,4.13,5.47,1.73,0,3.47,0,5.73-.13h1.6c1.07,0,2.53,0,4.4.13,1.47.13,2.53.13,3.87.13,4.4,0,4.67-.67,4.67-12.53q0-1.07-.53-7.2c0-8.4.13-21.73.53-22.93.8-6.53,4.27-10,9.87-10,5.2,0,8.93,3.87,10,10.53.27,2.27.8,19.33.8,31.07l-.8,6.27c0,1.73.93,3.47,1.87,4.13,1.07.53,1.6.53,12.4.53,6.53-.27,7.33-.53,8.13-1.33.8-.67,1.6-3.73,1.6-6v-5.2l.27-8.67v-3.47q-.53-10.8-.53-11.73v-2.13c.13-3.6.13-6,.13-8.67,0-8.4-2.67-16.27-7.33-21.47-4-4.4-11.33-7.87-17.2-7.87-6.8,0-13.73,1.47-15.73,3.33l-.67.67-1.47.93q-3.6-3.87-5.6-3.87h-5.33l-10.67-.4"/>
      <path id="path82" class="cls-1" d="m204.46,335.08c-1.33,0-2.93.13-3.6,1.47-.93,1.73,0,4.4-.13,6.4h0c0,1.07,0,2.13-.13,3.33,0,1.07-.4,2.27-.27,3.33.27,1.47,2,1.73,3.33,1.73,1.47,0,3.2,0,4.4-.13.93-.13,1.73-.13,1.87-.13l6.53.53,4.27-.27,5.07.13,5.07-.13,5.73.13,6.8-.13h3.07c1.33.13,2.4.13,3.2.13,1.87,0,3.47-.53,3.73-2.53.27-1.73.13-3.47,0-5.07-.13-1.73.4-3.33.4-5.07,0-2.53-1.07-3.47-4.27-3.47l-18.67.27c-2.4,0-3.33,0-5.87-.13-1.87-.13-3.33-.13-3.47-.13-1.07,0-3.6,0-8.13.13h-2.13c-.93,0-2.4,0-4-.13l-2.8-.27"/>
      <path id="path84" class="cls-1" d="m198.06,379.21c0,2.27,1.6,3.87,4,3.87.67,0,1.33-.13,1.87-.27,15.73-4.8,17.33-5.07,24-5.07,6.27,0,10.93,2.67,10.93,6,0,1.33-1.47,2.53-2.8,2.53-.8,0-2.27-.13-4.27-.67-1.33-.13-3.2-.27-5.73-.27-8.13,0-12,.53-16.53,1.87-5.73,1.6-8.8,3.2-10.53,5.07-4.27,4.4-6.8,10.8-6.8,16.53,0,8.27,2.13,14,7.07,19.33,4,4.27,11.73,7.2,19.07,7.2l3.87-.13q2.53.27,2.67.27c3.2,0,8.93-1.33,10.53-2.53q3.07-1.87,3.2-1.87c.27,0,.53.13.67.27,2.27,3.33,2.4,3.33,3.33,3.33h.8l3.87-.13c13.2-.27,13.73-.67,13.73-8.67,0-.93,0-2.13-.13-2.93l-.13-1.07q.13-3.33.13-3.6c0-.8,0-2.13-.13-3.73v-2.93c0-.93,0-2.27.13-3.47q.13-3.87.13-5.6v-3.33c-.13-2.67-.13-4.8-.13-5.07v-9.73c0-7.87-.13-10.53-1.07-12.4-1.87-4.67-4.4-7.07-10.67-10.93-4.13-2.53-10.8-4-19.33-4-10.67,0-17.2.93-21.87,3.07l-5.2,2.27c-2.93,1.07-3.6,1.87-4.13,4l-.53,12.8Zm30.67,23.6c5.6,0,9.87,3.07,9.87,7.07s-3.87,7.07-9.47,7.07c-8.93,0-13.87-2.4-13.87-6.53.13-5.07,4.8-7.6,13.47-7.6"/>
      <path id="path86" class="cls-1" d="m517.26,379.21c0,2.27,1.6,3.87,4,3.87.67,0,1.33-.13,1.87-.27,15.73-4.8,17.33-5.07,24-5.07,6.27,0,10.93,2.67,10.93,6,0,1.33-1.47,2.53-2.93,2.53-.8,0-2.27-.13-4.27-.67-1.33-.13-3.2-.27-5.73-.27-8.13,0-12,.53-16.53,1.87-5.73,1.6-8.8,3.2-10.53,5.07-4.27,4.4-6.8,10.8-6.8,16.53,0,8.27,2.13,14,7.07,19.33,4,4.27,11.73,7.2,19.07,7.2l3.87-.13q2.53.27,2.67.27c3.2,0,8.93-1.33,10.53-2.53q3.07-1.87,3.2-1.87c.27,0,.53.13.67.27,2.27,3.33,2.4,3.33,3.33,3.33h.8l3.87-.13c13.2-.27,13.73-.67,13.73-8.67,0-.93,0-2.13-.13-2.93l-.13-1.07q.13-3.33.13-3.6c0-.8,0-2.13-.13-3.73v-2.93c0-.93,0-2.27.13-3.47q.13-3.87.13-5.6v-3.33c-.13-2.67-.13-4.8-.13-5.07v-9.73c0-7.87-.13-10.53-1.07-12.4-1.87-4.67-4.4-7.07-10.67-10.93-4.13-2.53-10.8-4-19.33-4-10.67,0-17.2.93-21.87,3.07l-5.2,2.27c-2.93,1.07-3.6,1.87-4.13,4l-.4,12.8Zm30.8,23.6c5.6,0,9.87,3.07,9.87,7.07s-3.87,7.07-9.47,7.07c-8.93,0-13.87-2.4-13.87-6.53,0-5.07,4.67-7.6,13.47-7.6"/>
      <path id="path88" class="cls-1" d="m170.46,327.61c-3.07,0-5.47.8-6,2.27q-.67,1.33-.67,25.07l.13,20.53-.13,4.8-.13,14.53c-.13,7.47-2.13,12.93-5.2,14.67-1.6.93-2.13.93-9.2.93-5.2.13-6.4,1.47-6.4,8.4,0,.8,0,1.87.13,3.47l.13,4c0,6.8,1.87,8.4,9.73,8.4,12.53,0,15.33-.27,20.53-1.87,9.07-2.67,14.67-11.6,15.2-23.87.53-39.07.53-46.8.67-48.13.13-2.53.13-4.4.13-4.8l-.13-17.47c0-.8.13-2.13.27-3.87.13-1.33.13-2.27.13-3.2,0-2.67-1.87-4.13-5.47-4.13l-6,.27h-7.73"/>
      <path id="path90" class="cls-1" d="m407.52,373.88l-.13-2.67.13-7.2c0-3.33-1.73-4.8-5.87-4.8h-4.8c-1.47,0-3.2,0-4-.13l-3.47-.13c-.8,0-1.33.13-1.6.53q-1.6,2.27-2.13,2.27c-.67,0-.93-.13-3.33-1.6-2.53-1.47-7.33-2.4-12.13-2.4-10,0-16.27,1.47-20.93,4.93-8.27,6.27-12.53,16-12.53,28.4,0,6.67,1.6,12.4,4.4,16.4q5.07,7.07,6.4,7.87,2.27,1.47,3.2,2.13,2.53,1.87,4.93,2.53c8.8,2.27,9.2,2.4,14.8,2.4,4.27,0,6-.27,10.67-2.4.8-.27,1.6-.53,2.13-.53,1.07,0,1.87.8,1.87,2.13,0,2.4-1.73,5.07-4.13,6.4-1.87,1.07-3.87,1.47-8.27,1.47-5.87,0-11.6-.8-15.47-2.27-11.47-4.27-12.8-4.67-14.53-4.67-2.67,0-3.6,1.87-3.6,7.6v6.13c-.13.93-.13,1.73-.13,2.4,0,2.93,1.87,4.8,7.47,7.2,7.07,3.07,11.33,4,17.73,4,16.67,0,20.4-.27,26.67-2.4,4.8-1.6,7.47-2.67,9.6-4.27,4-3.07,6.8-8.4,6.8-13.07l-.13-13.2.27-11.2c0-.53,0-2.27-.13-4.8v-3.47l.27-9.47v-14.13Zm-34.67,5.47c7.47,0,12.27,4.67,12.27,11.73s-5.07,11.2-13.07,11.2c-7.33,0-12.53-4.8-12.53-11.47,0-2.4.53-3.33,2.53-6.4,2.67-3.6,5.6-5.07,10.8-5.07"/>
      <path id="path92" class="cls-1" d="m416.46,379.21c0,2.27,1.6,3.87,4,3.87.67,0,1.33-.13,1.87-.27,15.73-4.8,17.33-5.07,24-5.07,6.27,0,10.93,2.67,10.93,6,0,1.33-1.47,2.53-2.93,2.53-.8,0-2.27-.13-4.27-.67-1.33-.13-3.2-.27-5.73-.27-8.13,0-12,.53-16.53,1.87-5.73,1.6-8.8,3.2-10.53,5.07-4.27,4.4-6.8,10.8-6.8,16.53,0,8.27,2.13,14,7.07,19.33,4,4.27,11.73,7.2,19.07,7.2l3.87-.13q2.53.27,2.67.27c3.2,0,8.93-1.33,10.53-2.53q3.07-1.87,3.2-1.87c.27,0,.53.13.67.27,2.27,3.33,2.4,3.33,3.33,3.33h.8l3.87-.13c13.2-.27,13.73-.67,13.73-8.67,0-.93,0-2.13-.13-2.93l-.13-1.07q.13-3.33.13-3.6c0-.8,0-2.13-.13-3.73v-2.93c0-.93,0-2.27.13-3.47q.13-3.87.13-5.6v-3.33c-.13-2.67-.13-4.8-.13-5.07v-9.73c0-7.87-.13-10.53-1.07-12.4-1.87-4.67-4.4-7.07-10.67-10.93-4.13-2.53-10.8-4-19.33-4-10.67,0-17.2.93-21.87,3.07l-5.2,2.27c-2.93,1.07-3.73,1.87-4.13,4l-.4,12.8Zm30.8,23.6c5.6,0,9.87,3.07,9.87,7.07s-3.87,7.07-9.47,7.07c-8.93,0-13.87-2.4-13.87-6.53,0-5.07,4.67-7.6,13.47-7.6"/>
      <path id="path94" class="cls-1" d="m508.46,333.34c0-5.07-1.07-6.4-5.2-6.27l-5.07.27-7.33-.13c-3.2,0-4.4.67-5.6,2.67-.53.93-.67,5.07-.67,13.87l.13,14.93c-.53,9.47-.53,10.13-.53,14.8,0,4,0,8.8.13,17.07v2.67l-.8,30.93c0,8.27,1.33,10.13,6.53,10.13h1.47c.93-.13,1.73-.13,1.73-.13h2.27c1.6.13,3.07.13,4.27.13,5.73,0,8.13-2.27,8.13-7.6l-.13-13.07c-.13-2.93-.13-5.07-.13-5.6l.53-22.93-.13-10.93c0-1.33,0-2.4.13-3.47q.13-4.4.13-6.27c0-1.07,0-2.4-.13-3.87q-.27-9.2-.27-11.2c0-1.87,0-3.87.13-5.87q.53-5.73.53-9.07l-.13-1.07"/>
    </g>
  </g>
</svg>