<?xml version="1.0" encoding="UTF-8"?>
<svg id="Layer_1" data-name="Layer 1" xmlns="http://www.w3.org/2000/svg" viewBox="0 0 437.1 125.1">
  <defs>
    <style>
      .cls-1 {
        fill: #6a5eb5;
        stroke-width: 0px;
      }
    </style>
  </defs>
  <g id="g74">
    <g id="g2162">
      <path id="path78" class="cls-1" d="m168.1,7.6c0-3.1-1.9-4.4-5.7-4.4s-6.7.1-10.5.3c-6,.3-7.1,1.3-7.1,7.3s.3,10.8.8,11.7c.7,1.3,2.5,1.9,5.2,1.9,4.2,0,6.8-.1,8-.1s1.9,0,3.5.1c2.3.1,3.7-.3,4.4-1.6.7-1,1.1-4.1,1.1-9.5l.4-5.7"/>
      <path id="path80" class="cls-1" d="m126,31.7c-3.5,0-4.1,2.7-3.7,13.6.2,4.3.3,6.7.3,7.2v2c-.4,3.6-.5,6.6-.5,8.9,0,3.5,0,11.5.1,12.8.2,6.9.3,10.9.3,12v3.2c-.4,5.6-.5,9.2-.5,10.7,0,4,1.1,5.5,4.1,5.5s3.5,0,5.7-.1h1.6c1.1,0,2.5,0,4.4.1,1.5.1,2.5.1,3.9.1,4.4,0,4.7-.7,4.7-12.5s-.2-3.1-.5-7.2c0-8.4.1-21.7.5-22.9.8-6.5,4.3-10,9.9-10s8.9,3.9,10,10.5c.3,2.3.8,19.3.8,31.1l-.8,6.3c0,1.7.9,3.5,1.9,4.1,1.1.5,1.6.5,12.4.5,6.5-.3,7.3-.5,8.1-1.3.8-.7,1.6-3.7,1.6-6v-5.2l.3-8.7v-3.5c-.4-7.2-.5-11.1-.5-11.7v-2.1c.1-3.6.1-6,.1-8.7,0-8.4-2.7-16.3-7.3-21.5-4-4.4-11.3-7.9-17.2-7.9s-13.7,1.5-15.7,3.3l-.7.7-1.5.9c-2.4-2.6-4.3-3.9-5.6-3.9h-5.3l-10.7-.4"/>
      <path id="path82" class="cls-1" d="m61.6,8c-1.3,0-2.9.1-3.6,1.5-.9,1.7,0,4.4-.1,6.4h0c0,1.1,0,2.1-.1,3.3,0,1.1-.4,2.3-.3,3.3.3,1.5,2,1.7,3.3,1.7s3.2,0,4.4-.1c.9-.1,1.7-.1,1.9-.1l6.5.5,4.3-.3h5.1c0,.1,5.1,0,5.1,0h5.7c0,.1,6.8,0,6.8,0h3.1c1.3.1,2.4.1,3.2.1,1.9,0,3.5-.5,3.7-2.5.3-1.7.1-3.5,0-5.1-.1-1.7.4-3.3.4-5.1,0-2.5-1.1-3.5-4.3-3.5l-18.7.3c-2.4,0-3.3,0-5.9-.1-1.9-.1-3.3-.1-3.5-.1-1.1,0-3.6,0-8.1.1h-2.1c-.9,0-2.4,0-4-.1l-2.8-.3"/>
      <path id="path84" class="cls-1" d="m55.2,52.1c0,2.3,1.6,3.9,4,3.9s1.3-.1,1.9-.3c15.7-4.8,17.3-5.1,24-5.1s10.9,2.7,10.9,6-1.5,2.5-2.8,2.5-2.3-.1-4.3-.7c-1.3-.1-3.2-.3-5.7-.3-8.1,0-12,.5-16.5,1.9-5.7,1.6-8.8,3.2-10.5,5.1-4.3,4.4-6.8,10.8-6.8,16.5,0,8.3,2.1,14,7.1,19.3,4,4.3,11.7,7.2,19.1,7.2h3.9c1.7,0,2.6.1,2.7.1,3.2,0,8.9-1.3,10.5-2.5,2-1.2,3.1-1.9,3.2-1.9.3,0,.5.1.7.3,2.3,3.3,2.4,3.3,3.3,3.3h4.7c13.2-.4,13.7-.8,13.7-8.8s0-2.1-.1-2.9v-1.1c0-2.2,0-3.4,0-3.6,0-.8,0-2.1-.1-3.7v-2.9c0-.9,0-2.3.1-3.5,0-2.6.1-4.4.1-5.6v-3.3c-.1-2.7-.1-4.8-.1-5.1v-9.7c0-7.9-.1-10.5-1.1-12.4-1.9-4.7-4.4-7.1-10.7-10.9-4.1-2.5-10.8-4-19.3-4s-17.2.9-21.9,3.1l-5.2,2.3c-2.9,1.1-3.6,1.9-4.1,4l-.5,12.8h0Zm30.7,23.6c5.6,0,9.9,3.1,9.9,7.1s-3.9,7.1-9.5,7.1c-8.9,0-13.9-2.4-13.9-6.5.1-5.1,4.8-7.6,13.5-7.6"/>
      <path id="path86" class="cls-1" d="m374.4,52.1c0,2.3,1.6,3.9,4,3.9s1.3-.1,1.9-.3c15.7-4.8,17.3-5.1,24-5.1s10.9,2.7,10.9,6-1.5,2.5-2.9,2.5-2.3-.1-4.3-.7c-1.3-.1-3.2-.3-5.7-.3-8.1,0-12,.5-16.5,1.9-5.7,1.6-8.8,3.2-10.5,5.1-4.3,4.4-6.8,10.8-6.8,16.5,0,8.3,2.1,14,7.1,19.3,4,4.3,11.7,7.2,19.1,7.2h3.9c1.7,0,2.6.1,2.7.1,3.2,0,8.9-1.3,10.5-2.5,2-1.2,3.1-1.9,3.2-1.9.3,0,.5.1.7.3,2.3,3.3,2.4,3.3,3.3,3.3h4.7c13.2-.4,13.7-.8,13.7-8.8s0-2.1-.1-2.9v-1.1c0-2.2,0-3.4,0-3.6,0-.8,0-2.1-.1-3.7v-2.9c0-.9,0-2.3.1-3.5,0-2.6.1-4.4.1-5.6v-3.3c-.1-2.7-.1-4.8-.1-5.1v-9.7c0-7.9-.1-10.5-1.1-12.4-1.9-4.7-4.4-7.1-10.7-10.9-4.1-2.5-10.8-4-19.3-4s-17.2.9-21.9,3.1l-5.2,2.3c-2.9,1.1-3.6,1.9-4.1,4l-.4,12.8h0Zm30.8,23.6c5.6,0,9.9,3.1,9.9,7.1s-3.9,7.1-9.5,7.1c-8.9,0-13.9-2.4-13.9-6.5s4.7-7.6,13.5-7.6"/>
      <path id="path88" class="cls-1" d="m27.6.5c-3.1,0-5.5.8-6,2.3-.4.9-.7,9.2-.7,25.1v20.5c.1,0,0,4.8,0,4.8v14.5c-.3,7.5-2.3,12.9-5.3,14.7-1.6.9-2.1.9-9.2.9-5.2.1-6.4,1.5-6.4,8.4s0,1.9.1,3.5v4c.1,6.8,2,8.4,9.9,8.4,12.5,0,15.3-.3,20.5-1.9,9.1-2.7,14.7-11.6,15.2-23.9.5-39.1.5-46.8.7-48.1.1-2.5.1-4.4.1-4.8V11.5c-.1-.8,0-2.1.1-3.9.1-1.3.1-2.3.1-3.2,0-2.7-1.9-4.1-5.5-4.1l-6,.3h-7.7"/>
      <path id="path90" class="cls-1" d="m264.7,46.8v-2.7c-.1,0,0-7.2,0-7.2,0-3.3-1.7-4.8-5.9-4.8h-4.8c-1.5,0-3.2,0-4-.1h-3.5c-.8-.1-1.3,0-1.6.4-1.1,1.5-1.8,2.3-2.1,2.3-.7,0-.9-.1-3.3-1.6-2.5-1.5-7.3-2.4-12.1-2.4-10,0-16.3,1.5-20.9,4.9-8.3,6.3-12.5,16-12.5,28.4s1.6,12.4,4.4,16.4c3.4,4.7,5.5,7.3,6.4,7.9,1.5,1,2.6,1.7,3.2,2.1,1.7,1.2,3.3,2.1,4.9,2.5,8.8,2.3,9.2,2.4,14.8,2.4s6-.3,10.7-2.4c.8-.3,1.6-.5,2.1-.5,1.1,0,1.9.8,1.9,2.1,0,2.4-1.7,5.1-4.1,6.4-1.9,1.1-3.9,1.5-8.3,1.5s-11.6-.8-15.5-2.3c-11.5-4.3-12.8-4.7-14.5-4.7-2.7,0-3.6,1.9-3.6,7.6v6.1c-.1.9-.1,1.7-.1,2.4,0,2.9,1.9,4.8,7.5,7.2,7.1,3.1,11.3,4,17.7,4,16.7,0,20.4-.3,26.7-2.4,4.8-1.6,7.5-2.7,9.6-4.3,4-3.1,6.8-8.4,6.8-13.1v-13.2c-.1,0,.1-11.2.1-11.2,0-.5,0-2.3-.1-4.8v-3.5l.3-9.5v-14.1h0Zm-34.7,5.5c7.5,0,12.3,4.7,12.3,11.7s-5.1,11.2-13.1,11.2-12.5-4.8-12.5-11.5.5-3.3,2.5-6.4c2.7-3.6,5.6-5.1,10.8-5.1"/>
      <path id="path92" class="cls-1" d="m273.6,52.1c0,2.3,1.6,3.9,4,3.9s1.3-.1,1.9-.3c15.7-4.8,17.3-5.1,24-5.1s10.9,2.7,10.9,6-1.5,2.5-2.9,2.5-2.3-.1-4.3-.7c-1.3-.1-3.2-.3-5.7-.3-8.1,0-12,.5-16.5,1.9-5.7,1.6-8.8,3.2-10.5,5.1-4.3,4.4-6.8,10.8-6.8,16.5,0,8.3,2.1,14,7.1,19.3,4,4.3,11.7,7.2,19.1,7.2h3.9c1.7,0,2.6.1,2.7.1,3.2,0,8.9-1.3,10.5-2.5,2-1.2,3.1-1.9,3.2-1.9.3,0,.5.1.7.3,2.3,3.3,2.4,3.3,3.3,3.3h4.7c13.2-.4,13.7-.8,13.7-8.8s0-2.1-.1-2.9v-1.1c0-2.2,0-3.4,0-3.6,0-.8,0-2.1-.1-3.7v-2.9c0-.9,0-2.3.1-3.5,0-2.6.1-4.4.1-5.6v-3.3c-.1-2.7-.1-4.8-.1-5.1v-9.7c0-7.9-.1-10.5-1.1-12.4-1.9-4.7-4.4-7.1-10.7-10.9-4.1-2.5-10.8-4-19.3-4s-17.2.9-21.9,3.1l-5.2,2.3c-2.9,1.1-3.7,1.9-4.1,4l-.4,12.8h0Zm30.8,23.6c5.6,0,9.9,3.1,9.9,7.1s-3.9,7.1-9.5,7.1c-8.9,0-13.9-2.4-13.9-6.5s4.7-7.6,13.5-7.6"/>
      <path id="path94" class="cls-1" d="m365.6,6.3c0-5.1-1.1-6.4-5.2-6.3l-5.1.3h-7.3c-3.2-.1-4.4.5-5.6,2.5-.5.9-.7,5.1-.7,13.9v14.9c-.4,9.5-.4,10.1-.4,14.8s0,8.8.1,17.1v2.7l-.8,30.9c0,8.3,1.3,10.1,6.5,10.1h1.5c.9-.1,1.7-.1,1.7-.1h2.3c1.6.1,3.1.1,4.3.1,5.7,0,8.1-2.3,8.1-7.6v-13.1c-.3-2.9-.3-5.1-.3-5.6l.5-22.9v-10.9c-.1-1.3-.1-2.4,0-3.5,0-2.9.1-5,.1-6.3s0-2.4-.1-3.9c-.2-6.1-.3-9.9-.3-11.2s0-3.9.1-5.9c.4-3.8.5-6.8.5-9.1v-1.1"/>
    </g>
  </g>
</svg>